<svg id="instagram_4_" data-name="instagram (4)" xmlns="http://www.w3.org/2000/svg" width="38.388" height="38.388" viewBox="0 0 38.388 38.388">
  <path id="Path_23019" data-name="Path 23019" d="M214.348,210.674A3.674,3.674,0,1,1,210.674,207,3.674,3.674,0,0,1,214.348,210.674Zm0,0" transform="translate(-191.48 -191.48)" fill="#fff"/>
  <path id="Path_23020" data-name="Path 23020" d="M153.112,138.024a3.65,3.65,0,0,0-2.092-2.092,6.1,6.1,0,0,0-2.046-.379c-1.162-.053-1.511-.064-4.454-.064s-3.292.011-4.454.064a6.1,6.1,0,0,0-2.046.38,3.651,3.651,0,0,0-2.092,2.092,6.1,6.1,0,0,0-.379,2.047c-.053,1.162-.064,1.511-.064,4.454s.011,3.291.064,4.454a6.1,6.1,0,0,0,.379,2.046,3.65,3.65,0,0,0,2.092,2.092,6.09,6.09,0,0,0,2.047.38c1.162.053,1.51.064,4.453.064s3.292-.011,4.454-.064a6.089,6.089,0,0,0,2.047-.38,3.65,3.65,0,0,0,2.092-2.092,6.1,6.1,0,0,0,.38-2.046c.053-1.162.064-1.511.064-4.454s-.011-3.292-.064-4.454a6.09,6.09,0,0,0-.381-2.048Zm-8.592,12.16a5.66,5.66,0,1,1,5.66-5.66,5.66,5.66,0,0,1-5.66,5.66Zm5.883-10.22a1.325,1.325,0,1,1,.934-.387,1.323,1.323,0,0,1-.934.387Zm0,0" transform="translate(-125.327 -125.33)" fill="#fff"/>
  <path id="Path_23021" data-name="Path 23021" d="M19.194,0A19.194,19.194,0,1,0,38.388,19.194,19.194,19.194,0,0,0,19.194,0ZM30.149,23.738a8.086,8.086,0,0,1-.512,2.675,5.636,5.636,0,0,1-3.223,3.223,8.092,8.092,0,0,1-2.675.512c-1.175.054-1.551.066-4.544.066s-3.369-.013-4.544-.066a8.092,8.092,0,0,1-2.675-.512,5.635,5.635,0,0,1-3.223-3.223,8.084,8.084,0,0,1-.512-2.675c-.054-1.176-.067-1.551-.067-4.544s.013-3.369.066-4.544a8.087,8.087,0,0,1,.512-2.675,5.639,5.639,0,0,1,3.224-3.223,8.094,8.094,0,0,1,2.675-.512c1.175-.054,1.551-.066,4.544-.066s3.369.013,4.544.067a8.1,8.1,0,0,1,2.675.512,5.637,5.637,0,0,1,3.223,3.224,8.085,8.085,0,0,1,.513,2.675c.054,1.175.066,1.551.066,4.544S30.2,22.562,30.149,23.738Zm0,0" transform="translate(0)" fill="#fff"/>
</svg>
