<svg xmlns="http://www.w3.org/2000/svg" width="38.388" height="38.388" viewBox="0 0 38.388 38.388">
  <path id="twitter_1_" data-name="twitter (1)" d="M19.194,0A19.194,19.194,0,1,0,38.388,19.194,19.194,19.194,0,0,0,19.194,0Zm8.764,14.965q.013.283.013.569A12.45,12.45,0,0,1,15.435,28.069h0A12.47,12.47,0,0,1,8.682,26.09a8.961,8.961,0,0,0,1.051.061,8.84,8.84,0,0,0,5.472-1.886,4.41,4.41,0,0,1-4.116-3.06,4.391,4.391,0,0,0,1.99-.076,4.407,4.407,0,0,1-3.534-4.318c0-.02,0-.038,0-.056a4.375,4.375,0,0,0,2,.551,4.409,4.409,0,0,1-1.364-5.882,12.508,12.508,0,0,0,9.081,4.6,4.408,4.408,0,0,1,7.507-4.018,8.836,8.836,0,0,0,2.8-1.069,4.423,4.423,0,0,1-1.937,2.437,8.786,8.786,0,0,0,2.53-.694,8.953,8.953,0,0,1-2.2,2.281Zm0,0" fill="#fff"/>
</svg>
